<svg width="11" height="9" viewBox="0 0 11 9" fill="none" xmlns="http://www.w3.org/2000/svg">
<path d="M6.875 0C6.96094 0 7.04344 0.0421875 7.095 0.1125C7.69141 0.926367 8.43734 1.4291 9.38953 2.07246C9.47891 2.13223 9.57 2.19551 9.66453 2.25879C10.1613 2.59629 10.45 3.16758 10.45 3.77227C10.45 4.275 10.2558 4.73027 9.93781 5.0625H3.81219C3.49594 4.72852 3.3 4.27324 3.3 3.77227C3.3 3.16758 3.58703 2.59629 4.08547 2.25879C4.17828 2.19551 4.27109 2.13398 4.36047 2.07246C5.31266 1.4291 6.05859 0.926367 6.655 0.1125C6.70656 0.0421875 6.78906 0 6.875 0ZM4.95 9V7.73438C4.95 7.50059 4.76609 7.3125 4.5375 7.3125C4.30891 7.3125 4.125 7.50059 4.125 7.73438V9H3.3C2.99578 9 2.75 8.74863 2.75 8.4375V6.1875C2.75 5.87637 2.99578 5.625 3.3 5.625H10.45C10.7542 5.625 11 5.87637 11 6.1875V8.4375C11 8.74863 10.7542 9 10.45 9H9.625V7.73438C9.625 7.50059 9.44109 7.3125 9.2125 7.3125C8.98391 7.3125 8.8 7.50059 8.8 7.73438V9H7.7V7.98047C7.7 7.64648 7.55563 7.33008 7.30469 7.11562L6.875 6.75L6.44531 7.11562C6.19438 7.33008 6.05 7.64648 6.05 7.98047V9H4.95ZM1.21 0.0914062C1.25749 0.0546209 1.31543 0.0347129 1.375 0.0347129C1.43457 0.0347129 1.49251 0.0546209 1.54 0.0914062L1.815 0.302344C2.40281 0.754102 2.75 1.4625 2.75 2.21484V2.25H0V2.21484C0 1.4625 0.347188 0.754102 0.935 0.302344L1.21 0.0914062ZM0 2.8125H2.75V5.21367C2.42172 5.40879 2.2 5.7709 2.2 6.1875V8.4375C2.2 8.60625 2.23609 8.76445 2.29969 8.90859C2.18625 8.96836 2.05906 9 1.925 9H0.825C0.369531 9 0 8.62207 0 8.15625V2.8125Z" fill="#6821A8"/>
</svg>
