<?xml version="1.0" encoding="UTF-8"?>
<svg xmlns="http://www.w3.org/2000/svg" version="1.1" viewBox="0 0 69 62">
  <defs>
    <style>
      .cls-1 {
        fill: #3730a3;
      }
    </style>
  </defs>
  <!-- Generator: Adobe Illustrator 28.6.0, SVG Export Plug-In . SVG Version: 1.2.0 Build 709)  -->
  <g>
    <g id="Layer_1">
      <path class="cls-1" d="M11.5,43.2c-3.2,0-5.8-1.1-7.9-3.2-2.1-2.1-3.1-4.7-3.1-8s1.7-8.5,5-12.7c3.4-4.2,7.6-7.6,12.6-10.2,5.1-2.6,10.1-3.9,14.8-3.9s6,.7,8.1,2c2,1.3,3,3.1,3,5.3s-.5,2.8-1.5,4.9c.2.5.3,1.3.3,2.4,0,4.7-2.6,9.3-7.8,13.9-4,3.5-7.8,5.9-11.2,7.3-3.5,1.4-7.6,2.2-12.3,2.2ZM14.8,41.4c3.2,0,6.6-.8,10.4-2.5,3.7-1.7,6.9-4.1,9.7-7.1,2.9-3.2,4.5-6.6,4.8-10.2-2.4,2.7-5.7,5.2-9.8,7.3-.3.1-.5.2-.5,0,0,0,.7-.5,2-1.6,3.7-3.1,6.4-5.8,8.2-8-.3-1.9-1.2-3.5-2.7-4.9-1.4-1.4-3.2-2.5-5.4-3.1-.5-.1-1.1-.2-1.8-.3-.7,0-1.6,0-2.7-.1-.8,0-1.5-.2-2.2-.2-.6,0-1.1,0-1.3-.1h.2c1.7-.7,3.7-.9,5.8-.9s4.6.6,7,1.7c2.4,1.1,4.1,2.5,5.2,4.5.3-.8.5-1.7.5-2.6,0-2.1-.9-3.7-2.6-4.9-1.7-1.2-3.9-1.9-6.8-1.9-4.4,0-8.7,1.2-13.1,3.5-4.4,2.3-8.1,5.4-11,9.4-2.9,3.9-4.4,8-4.4,12.1s.9,5.6,2.7,7.3c1.9,1.7,4.4,2.6,7.6,2.6ZM29.8,61.9c-2.1,0-4-.7-5.7-2.2-1.7-1.4-2.6-3.4-2.6-5.9s0-.4.2-.4.4.3.5.8c1.1,3.6,3.4,5.5,7.1,5.5s10.2-6,15.1-18.1c.1-.4.3-.8.4-1.1.1-.2.3-.6.5-1.1.2-.5.5-1.3.8-2.4.4-1.1.9-2.7,1.7-4.7l3.3-9.6c-2.3-.7-3.5-2-3.5-4s.1-.6.4-.6l3.7.6h.4c.2,0,.4,0,.5-.2.5-.7.9-1.6,1.1-2.6.9-2.8,1.8-5.2,2.5-7.2.8-2,1.6-3.5,2.3-4.6,1.5-2.3,3.4-3.4,5.5-3.4s2.1.3,2.9.9c.8.6,1.2,1.4,1.2,2.4,0,2.3-.7,3.5-2.2,3.5s-.7-.1-.7-.4c.4-.9.6-1.9.6-3.1s-.4-1.9-1.1-1.9c-1.4,0-3.2,2.1-5.3,6.2-.1.3-.4.8-.6,1.4-.2.6-.7,1.8-1.4,3.7-1,2.7-1.4,4.2-1.4,4.5,0,.5.3.7.9.7l9.1-.2c.1,0,.2,0,.2.3-3.3,1.1-5.9,2-7.9,2.7-2,.6-3.3,1-4.1,1.2,0,.2-.2.8-.5,1.8-.3,1-.9,2.8-1.7,5.5-1.8,5.8-3.5,10.7-5.2,14.8-1.7,4.1-3.4,7.4-5.2,9.9-3.5,5-7.4,7.6-11.7,7.6Z"/>
    </g>
  </g>
</svg>